<svg width="17" height="16" viewBox="0 0 17 16" fill="none" xmlns="http://www.w3.org/2000/svg">
<g clip-path="url(#clip0)">
<path d="M8.23096 16C3.81962 16 0.230957 12.4107 0.230957 8C0.230957 3.58933 3.82029 0 8.23096 0C12.6416 0 16.231 3.58867 16.231 8C16.231 12.4113 12.6423 16 8.23096 16ZM8.23096 1C4.37229 1 1.23096 4.14 1.23096 8C1.23096 11.8587 4.37229 15 8.23096 15C12.091 15 15.231 11.8587 15.231 8C15.231 4.14 12.091 1 8.23096 1Z" fill="#1CA7F7"/>
<path d="M4.40303 3.38067C5.4417 2.518 6.7757 2 8.23103 2C8.65103 2 9.06103 2.044 9.45703 2.126C8.72903 3.158 8.0677 4.232 7.4857 5.34533C6.38503 4.832 5.34903 4.17 4.40303 3.38067Z" fill="#1CA7F7"/>
<path d="M6.32038 7.90127C4.99238 7.62794 3.61038 7.6026 2.24037 7.82994C2.28037 6.39994 2.81837 5.09594 3.69038 4.08594C4.71971 4.95327 5.85171 5.67194 7.05371 6.23394C6.79104 6.78194 6.54704 7.33727 6.32038 7.90127Z" fill="#1CA7F7"/>
<path d="M8.41893 5.72328C9.02027 4.58262 9.70093 3.48262 10.4609 2.43262C12.2623 3.15462 13.6276 4.72262 14.0723 6.64728C12.1303 6.72995 10.2083 6.40662 8.41893 5.72328Z" fill="#1CA7F7"/>
<path d="M7.29496 8.15006C7.50363 7.63606 7.72963 7.13006 7.97096 6.62939C9.70296 7.30406 11.553 7.67206 13.4343 7.67206C13.693 7.67206 13.953 7.65606 14.213 7.64206C14.2196 7.76073 14.231 7.87939 14.231 8.00006C14.231 9.47339 13.6976 10.8214 12.817 11.8654C11.3763 10.0761 9.43896 8.79406 7.29496 8.15006Z" fill="#1CA7F7"/>
<path d="M5.95312 8.84731C5.47646 10.178 5.10246 11.5453 4.82779 12.9386C3.47579 12.006 2.5318 10.5326 2.29513 8.83064C3.52113 8.61398 4.76046 8.62331 5.95312 8.84731Z" fill="#1CA7F7"/>
<path d="M12.1079 12.5761C11.0612 13.4634 9.71058 14.0001 8.23125 14.0001C7.34325 14.0001 6.50258 13.8021 5.74458 13.4554C6.01925 11.9614 6.41925 10.4994 6.93591 9.08008C8.95191 9.66874 10.7726 10.8787 12.1079 12.5761Z" fill="#1CA7F7"/>
</g>
<defs>
<clipPath id="clip0">
<rect width="16" height="16" fill="white" transform="matrix(-1 0 0 1 16.231 0)"/>
</clipPath>
</defs>
</svg>
