<svg width="15" height="15" viewBox="0 0 15 15" fill="none" xmlns="http://www.w3.org/2000/svg">
<path d="M14.3072 0.166382H9.91541C9.53267 0.166382 9.22246 0.476594 9.22246 0.859336C9.22246 1.24208 9.53267 1.55229 9.91541 1.55229H12.6343L5.9896 8.19695C5.71896 8.46759 5.71896 8.90631 5.9896 9.17695C6.12496 9.31223 6.30228 9.3799 6.47959 9.3799C6.65691 9.3799 6.83423 9.31223 6.96959 9.17695L13.6142 2.53228V5.2512C13.6142 5.63395 13.9245 5.94416 14.3072 5.94416C14.6899 5.94416 15.0002 5.63395 15.0002 5.2512V0.859413C15.0002 0.476594 14.6899 0.166382 14.3072 0.166382Z" fill="#1CA7F7"/>
<path d="M11.4722 5.94413C11.0895 5.94413 10.7793 6.25434 10.7793 6.63708V13.4477H1.38591V4.05437H8.60634C8.98908 4.05437 9.29929 3.74415 9.29929 3.36141C9.29929 2.97867 8.98908 2.66846 8.60634 2.66846H0.692954C0.310213 2.66846 0 2.97867 0 3.36141V14.1407C0 14.5234 0.310213 14.8337 0.692954 14.8337H11.4722C11.855 14.8337 12.1652 14.5234 12.1652 14.1407V6.63708C12.1652 6.25434 11.855 5.94413 11.4722 5.94413Z" fill="#1CA7F7"/>
</svg>
