<svg width="17" height="16" viewBox="0 0 17 16" fill="none" xmlns="http://www.w3.org/2000/svg">
<g clip-path="url(#clip0)">
<path d="M8.61523 0.333374C4.19523 0.333374 0.615234 3.85337 0.615234 8.19471C0.615234 11.6687 2.90723 14.6147 6.08523 15.6534C6.48523 15.7274 6.6319 15.484 6.6319 15.2754C6.6319 15.0887 6.62523 14.594 6.6219 13.9387C4.39657 14.4127 3.92723 12.884 3.92723 12.884C3.56323 11.9767 3.03723 11.734 3.03723 11.734C2.31257 11.2467 3.09323 11.2567 3.09323 11.2567C3.89657 11.3114 4.31857 12.0667 4.31857 12.0667C5.0319 13.2687 6.19123 12.9214 6.64857 12.7207C6.72057 12.212 6.92657 11.866 7.15523 11.6694C5.37857 11.4727 3.51123 10.7967 3.51123 7.78471C3.51123 6.92671 3.82123 6.22537 4.33457 5.67537C4.24457 5.47671 3.97457 4.67737 4.40457 3.59471C4.40457 3.59471 5.07457 3.38404 6.60457 4.40071C7.24457 4.22604 7.92457 4.13937 8.60457 4.13537C9.28457 4.13937 9.96457 4.22604 10.6046 4.40071C12.1246 3.38404 12.7946 3.59471 12.7946 3.59471C13.2246 4.67737 12.9546 5.47671 12.8746 5.67537C13.3846 6.22537 13.6946 6.92671 13.6946 7.78471C13.6946 10.8047 11.8246 11.4694 10.0446 11.6627C10.3246 11.8987 10.5846 12.3807 10.5846 13.1174C10.5846 14.1694 10.5746 15.0147 10.5746 15.27C10.5746 15.476 10.7146 15.722 11.1246 15.6434C14.3252 14.6114 16.6152 11.6634 16.6152 8.19471C16.6152 3.85337 13.0332 0.333374 8.61523 0.333374Z" fill="#1CA7F7"/>
</g>
<defs>
<clipPath id="clip0">
<rect width="16" height="16" fill="white" transform="translate(0.615234)"/>
</clipPath>
</defs>
</svg>
