<svg width="16" height="16" viewBox="0 0 16 16" fill="none" xmlns="http://www.w3.org/2000/svg">
<g clip-path="url(#clip0)">
<path d="M15.9963 16V15.9993H16.0003V10.1313C16.0003 7.26065 15.3823 5.04932 12.0263 5.04932C10.413 5.04932 9.33033 5.93465 8.88833 6.77398H8.84167V5.31732H5.65967V15.9993H8.973V10.71C8.973 9.31732 9.237 7.97065 10.9617 7.97065C12.661 7.97065 12.6863 9.55998 12.6863 10.7993V16H15.9963Z" fill="#1CA7F7"/>
<path d="M0.26416 5.31799H3.58149V16H0.26416V5.31799Z" fill="#1CA7F7"/>
<path d="M1.92133 0C0.860667 0 0 0.860667 0 1.92133C0 2.982 0.860667 3.86067 1.92133 3.86067C2.982 3.86067 3.84267 2.982 3.84267 1.92133C3.842 0.860667 2.98133 0 1.92133 0V0Z" fill="#1CA7F7"/>
</g>
<defs>
<clipPath id="clip0">
<rect width="16" height="16" fill="white"/>
</clipPath>
</defs>
</svg>
